<svg viewBox="0 0 128 128" fill="none" xmlns="http://www.w3.org/2000/svg">
<path d="M61.8787 3.53553C63.0503 2.36396 64.9497 2.36396 66.1213 3.53554L124.464 61.8787C125.636 63.0503 125.636 64.9497 124.464 66.1213L66.1213 124.464C64.9497 125.636 63.0503 125.636 61.8787 124.464L3.53553 66.1213C2.36396 64.9497 2.36396 63.0503 3.53553 61.8787L61.8787 3.53553Z" fill="#F1F1F1" stroke="black" stroke-width="2"/>
<rect x="20" y="53" width="61" height="22" fill="#F32416" fill-opacity="0.5"/>
<path d="M27.6875 64.1562L35.4688 68.4688C35.8594 68.6875 36.1172 68.8828 36.2422 69.0547C36.375 69.2266 36.4414 69.4453 36.4414 69.7109C36.4414 70.0469 36.3203 70.3398 36.0781 70.5898C35.8359 70.832 35.5547 70.9531 35.2344 70.9531C35.0234 70.9531 34.707 70.8359 34.2852 70.6016L22.6953 64.1562L34.2852 57.7109C34.707 57.4844 35.0195 57.3711 35.2227 57.3711C35.5508 57.3711 35.8359 57.4922 36.0781 57.7344C36.3203 57.9766 36.4414 58.2656 36.4414 58.6016C36.4414 58.8672 36.375 59.0859 36.2422 59.2578C36.1172 59.4297 35.8594 59.625 35.4688 59.8438L27.6875 64.1562ZM49.5664 56.1172L41.8672 72.7109C41.6719 73.125 41.4961 73.3945 41.3398 73.5195C41.1367 73.6836 40.8906 73.7656 40.6016 73.7656C40.2734 73.7656 39.9883 73.6484 39.7461 73.4141C39.5117 73.1797 39.3945 72.9141 39.3945 72.6172C39.3945 72.4062 39.4883 72.0977 39.6758 71.6914L47.3984 55.1094C47.5938 54.6953 47.7656 54.4258 47.9141 54.3008C48.125 54.1367 48.3711 54.0547 48.6523 54.0547C48.9805 54.0547 49.2617 54.1719 49.4961 54.4062C49.7305 54.6328 49.8477 54.8945 49.8477 55.1914C49.8477 55.4023 49.7539 55.7109 49.5664 56.1172ZM58.4375 62.7617V67.5781C58.4375 68.0938 58.543 68.4336 58.7539 68.5977C59.082 68.8555 59.668 68.9844 60.5117 68.9844C61.7383 68.9844 62.8711 68.7227 63.9102 68.1992C64.3086 67.9961 64.6211 67.8945 64.8477 67.8945C65.1602 67.8945 65.4297 68.0117 65.6562 68.2461C65.8906 68.4805 66.0078 68.7656 66.0078 69.1016C66.0078 69.4141 65.8828 69.6836 65.6328 69.9102C65.25 70.2773 64.4922 70.6172 63.3594 70.9297C62.2344 71.2344 61.2852 71.3867 60.5117 71.3867C59.0195 71.3867 57.8984 71.0664 57.1484 70.4258C56.4062 69.7773 56.0352 68.9844 56.0352 68.0469V62.7617H55.168C54.5898 62.7617 54.1758 62.6523 53.9258 62.4336C53.6836 62.207 53.5625 61.9141 53.5625 61.5547C53.5625 61.2031 53.6836 60.918 53.9258 60.6992C54.1758 60.4727 54.5898 60.3594 55.168 60.3594H56.0352V58.1914C56.0352 57.6133 56.1445 57.2031 56.3633 56.9609C56.5898 56.7109 56.8828 56.5859 57.2422 56.5859C57.5938 56.5859 57.8789 56.7109 58.0977 56.9609C58.3242 57.2031 58.4375 57.6133 58.4375 58.1914V60.3594H62.8789C63.457 60.3594 63.8672 60.4727 64.1094 60.6992C64.3594 60.918 64.4844 61.207 64.4844 61.5664C64.4844 61.918 64.3594 62.207 64.1094 62.4336C63.8672 62.6523 63.457 62.7617 62.8789 62.7617H58.4375ZM75.6055 71V70.4375C75.0039 70.7578 74.3398 70.9961 73.6133 71.1523C72.8867 71.3164 72.2266 71.3984 71.6328 71.3984C70.3438 71.3984 69.2969 71.0586 68.4922 70.3789C67.6875 69.6914 67.2852 68.9336 67.2852 68.1055C67.2852 67.0977 67.7969 66.1641 68.8203 65.3047C69.8516 64.4375 71.2734 64.0039 73.0859 64.0039C73.8125 64.0039 74.6523 64.082 75.6055 64.2383V63.6641C75.6055 63.3047 75.4492 63.0117 75.1367 62.7852C74.832 62.5586 74.2461 62.4453 73.3789 62.4453C72.668 62.4453 71.7461 62.5859 70.6133 62.8672C70.1914 62.9688 69.8633 63.0195 69.6289 63.0195C69.3086 63.0195 69.0352 62.9062 68.8086 62.6797C68.5898 62.4453 68.4805 62.1484 68.4805 61.7891C68.4805 61.5859 68.5195 61.4102 68.5977 61.2617C68.6758 61.1133 68.7852 60.9961 68.9258 60.9102C69.0664 60.8164 69.3594 60.707 69.8047 60.582C70.3984 60.418 71.0039 60.2891 71.6211 60.1953C72.2383 60.0938 72.7969 60.043 73.2969 60.043C74.7891 60.043 75.9453 60.3672 76.7656 61.0156C77.5938 61.6562 78.0078 62.5352 78.0078 63.6523V68.5977H78.418C78.9961 68.5977 79.4062 68.7109 79.6484 68.9375C79.8984 69.1562 80.0234 69.4453 80.0234 69.8047C80.0234 70.1562 79.8984 70.4453 79.6484 70.6719C79.4062 70.8906 78.9961 71 78.418 71H75.6055ZM75.6055 66.6992C74.6445 66.5117 73.7578 66.418 72.9453 66.418C71.9688 66.418 71.1289 66.6562 70.4258 67.1328C69.9883 67.4375 69.7695 67.7461 69.7695 68.0586C69.7695 68.2852 69.875 68.4688 70.0859 68.6094C70.4766 68.8672 71.0117 68.9961 71.6914 68.9961C72.2695 68.9961 72.9219 68.8828 73.6484 68.6562C74.3828 68.4297 75.0352 68.1211 75.6055 67.7305V66.6992ZM90.5 61.0742V60.3594H93.3125C93.8906 60.3594 94.3008 60.4727 94.543 60.6992C94.793 60.918 94.918 61.207 94.918 61.5664C94.918 61.918 94.793 62.207 94.543 62.4336C94.3008 62.6523 93.8906 62.7617 93.3125 62.7617H92.9023V71.5039C92.9023 72.3477 92.7227 73.082 92.3633 73.707C92.0117 74.3398 91.4688 74.8828 90.7344 75.3359C90 75.7891 89.1719 76.0156 88.25 76.0156H85.5312C84.9531 76.0156 84.5391 75.9023 84.2891 75.6758C84.0469 75.457 83.9258 75.1719 83.9258 74.8203C83.9258 74.4609 84.0469 74.168 84.2891 73.9414C84.5391 73.7227 84.9531 73.6133 85.5312 73.6133H88.1797C88.9141 73.6133 89.4844 73.4141 89.8906 73.0156C90.2969 72.6172 90.5 72.1133 90.5 71.5039V70.332C89.9688 70.6758 89.4258 70.9336 88.8711 71.1055C88.3242 71.2773 87.7617 71.3633 87.1836 71.3633C85.5508 71.3633 84.1836 70.8203 83.082 69.7344C81.9805 68.6406 81.4297 67.293 81.4297 65.6914C81.4297 64.082 81.9805 62.7344 83.082 61.6484C84.1836 60.5547 85.5508 60.0078 87.1836 60.0078C87.793 60.0078 88.3711 60.0977 88.918 60.2773C89.4727 60.4492 90 60.7148 90.5 61.0742ZM90.4883 65.6797C90.4883 64.7969 90.1602 64.0312 89.5039 63.3828C88.8555 62.7344 88.0742 62.4102 87.1602 62.4102C86.2461 62.4102 85.4609 62.7344 84.8047 63.3828C84.1562 64.0312 83.832 64.7969 83.832 65.6797C83.832 66.5703 84.1562 67.3398 84.8047 67.9883C85.4609 68.6289 86.2461 68.9492 87.1602 68.9492C88.0742 68.9492 88.8555 68.6289 89.5039 67.9883C90.1602 67.3398 90.4883 66.5703 90.4883 65.6797ZM104.809 64.1562L97.0273 59.8438C96.6367 59.625 96.375 59.4297 96.2422 59.2578C96.1172 59.0859 96.0547 58.8672 96.0547 58.6016C96.0547 58.2656 96.1758 57.9766 96.418 57.7344C96.6602 57.4922 96.9453 57.3711 97.2734 57.3711C97.4766 57.3711 97.7891 57.4844 98.2109 57.7109L109.801 64.1562L98.2109 70.6016C97.7891 70.8359 97.4766 70.9531 97.2734 70.9531C96.9453 70.9531 96.6602 70.832 96.418 70.5898C96.1758 70.3477 96.0547 70.0547 96.0547 69.7109C96.0547 69.4453 96.1172 69.2266 96.2422 69.0547C96.375 68.8828 96.6367 68.6875 97.0273 68.4688L104.809 64.1562Z" fill="black"/>
<path d="M90.439 78.0323L123.317 109.399L112.568 119.653L79.6904 88.287L90.439 78.0323Z" fill="#F32416"/>
<path d="M113.2 119.05L122.685 110.002L125.19 112.393C125.203 112.405 125.203 112.424 125.19 112.436L115.729 121.463L113.2 119.05Z" fill="#911006"/>
<path d="M75.897 78.6356L76.3359 79.0544C78.4837 81.1035 79.6908 83.8827 79.6908 86.7805L79.6908 88.287L90.4386 78.0325L88.8255 78.1724C85.4403 78.465 82.0934 77.3091 79.6908 75.0161L75.897 78.6356Z" fill="#911006"/>
<path d="M79.0583 75.6195L76.5295 78.032L74 75.6195L75.2643 72L79.0583 75.6195Z" fill="#F32416"/>
<path d="M92.706 87.0804C92.706 86.862 92.7936 86.6436 92.9679 86.4773C93.3176 86.1437 93.8826 86.1437 94.2322 86.4773L115.729 106.986C116.079 107.319 116.079 107.859 115.729 108.193C115.38 108.525 114.815 108.525 114.465 108.193L92.9679 87.6835C92.7936 87.5172 92.706 87.2988 92.706 87.0804Z" fill="#911006"/>
<path d="M88.2805 91.3028C88.2805 91.0844 88.3681 90.866 88.5424 90.6997C88.8921 90.3661 89.4572 90.3661 89.8067 90.6997L111.303 111.208C111.653 111.542 111.653 112.081 111.303 112.415C110.953 112.748 110.388 112.748 110.039 112.415L88.5425 91.9059C88.3681 91.7396 88.2805 91.5212 88.2805 91.3028Z" fill="#911006"/>
</svg>
