<svg viewBox="0 0 64 64" fill="none" xmlns="http://www.w3.org/2000/svg">
  <circle cx="32" cy="32" r="32" fill="#252F3F" />
  <path
    d="M27.952 25.584C26.096 25.584 24.56 26.288 23.44 27.92C22.576 26.384 21.136 25.584 19.44 25.584C17.84 25.584 16.432 26.224 15.44 27.664V26.736C15.44 26.256 15.184 26 14.704 26H12.688C12.24 26 11.984 26.256 11.984 26.736V41.296C11.984 41.744 12.24 42 12.688 42H14.704C15.184 42 15.44 41.744 15.44 41.296V32.176C15.44 29.584 17.04 28.816 18.32 28.816C19.6 28.816 20.72 29.52 20.72 31.44V41.296C20.72 41.744 20.976 42 21.456 42H23.472C23.92 42 24.176 41.744 24.176 41.296V32.176C24.176 29.584 25.776 28.816 27.056 28.816C28.368 28.816 29.488 29.52 29.488 31.44V41.296C29.488 41.744 29.744 42 30.192 42H32.208C32.688 42 32.944 41.744 32.944 41.296V31.216C32.944 27.536 30.832 25.584 27.92 25.584H27.952Z"
    fill="white" />
  <path
    d="M45.072 25.584C42.544 25.584 40.656 26.64 39.44 28.304V20.336C39.44 19.856 39.184 19.6 38.736 19.6H36.72C36.24 19.6 35.984 19.856 35.984 20.336V41.296C35.984 41.744 36.24 42 36.72 42H38.736C39.184 42 39.44 41.744 39.44 41.296V39.728C40.656 41.392 42.544 42.416 45.072 42.416C49.424 42.416 53.008 38.768 53.008 34C53.008 29.264 49.424 25.584 45.072 25.584ZM44.496 39.12C41.616 39.12 39.44 36.976 39.44 34C39.44 31.024 41.616 28.88 44.496 28.88C47.376 28.88 49.552 31.024 49.552 34C49.552 36.976 47.376 39.12 44.496 39.12Z"
    fill="#A4CAFE" />
</svg>